<?xml version="1.0" encoding="UTF-8"?>
<svg width="263px" height="18px" viewBox="0 0 263 18" version="1.1" xmlns="http://www.w3.org/2000/svg" xmlns:xlink="http://www.w3.org/1999/xlink">
    <!-- Generator: Sketch 47.1 (45422) - http://www.bohemiancoding.com/sketch -->
    <title>Bacon</title>
    <desc>Created with Sketch.</desc>
    <defs></defs>
    <g id="Page-1" stroke="none" stroke-width="1" fill="none" fill-rule="evenodd">
        <g id="Burger-Builder-UI" transform="translate(-30.000000, -270.000000)">
            <g id="Bacon" transform="translate(30.000000, 270.000000)">
                <path d="M5.9306069,5.75031946 C15.9855532,7.25010649 22.4005023,8 25.1754544,8 C29.9821537,8 40.7524473,3 45.6565815,3 C50.7857481,3 56.9149148,8 62.0440814,8 C67.0384867,8 71.2809959,5 78.771609,5 C81.6401088,5 86.7436336,7 92.0821832,7 C96.0448678,7 101.836872,4.22993108 105.011643,4 C108.186414,3.77006892 111.468633,6 118.69716,6 C125.925688,6 125.776456,3 133.154215,3 C140.531973,3 141.103857,6 147.909732,6 C154.715607,6 154.590396,4 161.521482,4 C165.969466,4 175.417449,8 179.865433,8 C181.029577,8 189.007699,4.84587622 197.7998,4.53762865 C201.611577,4.40398921 208.013414,6.36003502 217.005309,6.40576606 C220.278995,6.42241539 228.487435,3.32418182 235.630628,3.11106535 C238.014067,3.03995564 242.701647,6.18387521 247.693365,6.54282406 C249.367978,6.66324357 252.831407,6.3781981 258.083652,5.68768766 L258.083654,5.68769799 C260.465272,5.3745876 262.649782,7.05144485 262.962892,9.43306348 C262.987604,9.62103161 263,9.81041439 263,10 L263,10 L263,10 C263,12.9430411 260.899745,15.4669236 258.005693,16.001672 C254.510747,16.6474344 252.193184,16.9249725 251.053003,16.8342706 C243.886895,16.2642039 237.78557,13.0236672 234.749028,13.1126606 C227.462147,13.3262207 219.174206,16.4268432 215.885204,16.414528 C207.857292,16.3844687 202.045666,14.4314329 198.450327,14.5554209 C189.855872,14.851807 181.703155,18 179.992178,18 C173.325313,18 168.801116,14 161.658448,14 C154.51578,14 153.928053,16 147.373112,16 C140.818171,16 141.53162,13 134.263229,13 C126.994839,13 127.267011,16 119.726449,16 C112.185886,16 114.837111,13.2497296 104.645324,14 C94.4535363,14.7502704 96.0679061,17 92.5581438,17 C86.6150632,17 82.1609467,15 79.1957943,15 C71.1850534,15 66.9807039,18 62.5827457,18 C56.3909456,18 49.7617662,13 44.6952076,13 C40.4214282,13 29.4082595,18 25.1754544,18 C22.7235949,18 16.3183622,17.2450518 5.95975634,15.7351553 L5.95976133,15.735121 C3.11187343,15.3200057 1,12.877983 1,10 L1,10 L1,10 C1,7.62698251 2.92371076,5.70327175 5.29672825,5.70327175 C5.50889374,5.70327175 5.72076785,5.7189863 5.93061183,5.75028644 Z" id="Rectangle-2" fill="#725200"></path>
                <path d="M5.9306069,3.75031946 C15.9855532,5.25010649 22.4005023,6 25.1754544,6 C29.9821537,6 40.7524473,1 45.6565815,1 C50.7857481,1 56.9149148,6 62.0440814,6 C67.0384867,6 71.2809959,3 78.771609,3 C81.6401088,3 86.7436336,5 92.0821832,5 C96.0448678,5 101.836872,2.22993108 105.011643,2 C108.186414,1.77006892 111.468633,4 118.69716,4 C125.925688,4 125.776456,1 133.154215,1 C140.531973,1 141.103857,4 147.909732,4 C154.715607,4 154.590396,2 161.521482,2 C165.969466,2 175.417449,6 179.865433,6 C181.029577,6 189.007699,2.84587622 197.7998,2.53762865 C201.611577,2.40398921 208.013414,4.36003502 217.005309,4.40576606 C220.278995,4.42241539 228.487435,1.32418182 235.630628,1.11106535 C238.014067,1.03995564 242.701647,4.18387521 247.693365,4.54282406 C249.367978,4.66324357 252.831407,4.3781981 258.083652,3.68768766 L258.083654,3.68769799 C260.465272,3.3745876 262.649782,5.05144485 262.962892,7.43306348 C262.987604,7.62103161 263,7.81041439 263,8 L263,8 L263,8 C263,10.9430411 260.899745,13.4669236 258.005693,14.001672 C254.510747,14.6474344 252.193184,14.9249725 251.053003,14.8342706 C243.886895,14.2642039 237.78557,11.0236672 234.749028,11.1126606 C227.462147,11.3262207 219.174206,14.4268432 215.885204,14.414528 C207.857292,14.3844687 202.045666,12.4314329 198.450327,12.5554209 C189.855872,12.851807 181.703155,16 179.992178,16 C173.325313,16 168.801116,12 161.658448,12 C154.51578,12 153.928053,14 147.373112,14 C140.818171,14 141.53162,11 134.263229,11 C126.994839,11 127.267011,14 119.726449,14 C112.185886,14 114.837111,11.2497296 104.645324,12 C94.4535363,12.7502704 96.0679061,15 92.5581438,15 C86.6150632,15 82.1609467,13 79.1957943,13 C71.1850534,13 66.9807039,16 62.5827457,16 C56.3909456,16 49.7617662,11 44.6952076,11 C40.4214282,11 29.4082595,16 25.1754544,16 C22.7235949,16 16.3183622,15.2450518 5.95975634,13.7351553 L5.95976133,13.735121 C3.11187343,13.3200057 1,10.877983 1,8 L1,8 L1,8 C1,5.62698251 2.92371076,3.70327175 5.29672825,3.70327175 C5.50889374,3.70327175 5.72076785,3.7189863 5.93061183,3.75028644 Z" id="Rectangle-2" fill="#EC5648"></path>
                <path d="M5.9306069,2.75031946 C15.9855532,4.25010649 22.4005023,5 25.1754544,5 C29.9821537,5 40.7524473,1.13714593e-13 45.6565815,1.13686838e-13 C50.7857481,1.13714593e-13 56.9149148,5 62.0440814,5 C67.0384867,5 71.2809959,2 78.771609,2 C81.6401088,2 86.7436336,4 92.0821832,4 C96.0448678,4 101.836872,1.22993108 105.011643,1 C108.186414,0.770068921 111.468633,3 118.69716,3 C125.925688,3 125.776456,2.27373675e-13 133.154215,2.27373675e-13 C140.531973,2.27373675e-13 141.103857,3 147.909732,3 C154.715607,3 154.590396,1 161.521482,1 C165.969466,1 175.417449,5 179.865433,5 C181.029577,5 189.007699,1.84587622 197.7998,1.53762865 C201.611577,1.40398921 208.013414,3.36003502 217.005309,3.40576606 C220.278995,3.42241539 228.487435,0.324181824 235.630628,0.111065348 C238.014067,0.0399556442 242.701647,3.18387521 247.693365,3.54282406 C249.367978,3.66324357 252.831407,3.3781981 258.083652,2.68768766 L258.083654,2.68769799 C260.465272,2.3745876 262.649782,4.05144485 262.962892,6.43306348 C262.987604,6.62103161 263,6.81041439 263,7 L263,7 L263,7 C263,9.94304112 260.899745,12.4669236 258.005693,13.001672 C254.510747,13.6474344 252.193184,13.9249725 251.053003,13.8342706 C243.886895,13.2642039 237.78557,10.0236672 234.749028,10.1126606 C227.462147,10.3262207 219.174206,13.4268432 215.885204,13.414528 C207.857292,13.3844687 202.045666,11.4314329 198.450327,11.5554209 C189.855872,11.851807 181.703155,15 179.992178,15 C173.325313,15 168.801116,11 161.658448,11 C154.51578,11 153.928053,13 147.373112,13 C140.818171,13 141.53162,10 134.263229,10 C126.994839,10 127.267011,13 119.726449,13 C112.185886,13 114.837111,10.2497296 104.645324,11 C94.4535363,11.7502704 96.0679061,14 92.5581438,14 C86.6150632,14 82.1609467,12 79.1957943,12 C71.1850534,12 66.9807039,15 62.5827457,15 C56.3909456,15 49.7617662,10 44.6952076,10 C40.4214282,10 29.4082595,15 25.1754544,15 C22.7235949,15 16.3183622,14.2450518 5.95975634,12.7351553 L5.95976133,12.735121 C3.11187343,12.3200057 1,9.87798302 1,7 L1,7 L1,7 C1,4.62698251 2.92371076,2.70327175 5.29672825,2.70327175 C5.50889374,2.70327175 5.72076785,2.7189863 5.93061183,2.75028644 Z" id="Rectangle-2" fill="#EC5648"></path>
                <path d="M3.63883359,4.87479239 C14.4379153,6.06937524 21.2834556,6.66666667 24.1754544,6.66666667 C28.9821537,6.66666667 39.7524473,3 44.6565815,3 C49.7857481,3 55.9149148,6.66666667 61.0440814,6.66666667 C66.0384867,6.66666667 70.2809959,4.46666667 77.771609,4.46666667 C80.6401088,4.46666667 85.7436336,5.93333333 91.0821832,5.93333333 C95.0448678,5.93333333 100.836872,3.90194946 104.011643,3.73333333 C107.186414,3.56471721 110.468633,5.2 117.69716,5.2 C124.925688,5.2 124.776456,3 132.154215,3 C139.531973,3 140.103857,5.2 146.909732,5.2 C153.715607,5.2 153.590396,3.73333333 160.521482,3.73333333 C164.969466,3.73333333 174.417449,6.66666667 178.865433,6.66666667 C180.029577,6.66666667 188.007699,4.35364256 196.7998,4.12759434 C200.611577,4.02959209 207.013414,5.46402568 216.005309,5.49756178 C219.278995,5.50977129 227.487435,3.23773334 234.630628,3.08144792 C237.014067,3.02930081 241.701647,5.33484182 246.693365,5.59807098 C248.500726,5.69337882 252.391745,5.4423364 258.366421,4.84494372 L258.366422,4.84494923 C260.182546,4.66335958 261.802013,5.9884118 261.983603,7.8045362 C261.994528,7.91379479 262,8.02352995 262,8.13333333 L262,8.13333333 L262,8.13333333 C262,10.2524642 260.441554,12.0490179 258.343663,12.3483036 C254.096466,12.954178 251.332914,13.2197979 250.053003,13.1451318 C242.886895,12.7270829 236.78557,10.3506893 233.749028,10.4159511 C226.462147,10.5725619 218.174206,12.8463517 214.885204,12.8373205 C206.857292,12.815277 201.045666,11.3830508 197.450327,11.4739753 C188.855872,11.6913251 180.703155,14 178.992178,14 C172.325313,14 167.801116,11.0666667 160.658448,11.0666667 C153.51578,11.0666667 152.928053,12.5333333 146.373112,12.5333333 C139.818171,12.5333333 140.53162,10.3333333 133.263229,10.3333333 C125.994839,10.3333333 126.267011,12.5333333 118.726449,12.5333333 C111.185886,12.5333333 113.837111,10.5164684 103.645324,11.0666667 C93.4535363,11.616865 95.0679061,13.2666667 91.5581438,13.2666667 C85.6150632,13.2666667 81.1609467,11.8 78.1957943,11.8 C70.1850534,11.8 65.9807039,14 61.5827457,14 C55.3909456,14 48.7617662,10.3333333 43.6952076,10.3333333 C39.4214282,10.3333333 28.4082595,14 24.1754544,14 C21.6218665,14 14.7800466,13.3994778 3.64999473,12.1984334 L3.64999901,12.1983937 C1.57373709,11.9743442 2.55744892e-16,10.2216489 0,8.13333333 L0,8.13333333 L0,8.13333333 C-2.21734277e-16,6.32273556 1.4677795,4.85495605 3.27837728,4.85495605 C3.39880178,4.85495605 3.51913482,4.86159137 3.63882922,4.87483184 Z" id="Rectangle-2" fill="#725200"></path>
            </g>
        </g>
    </g>
</svg>