<?xml version="1.0" encoding="UTF-8"?>
<svg width="265px" height="39px" viewBox="0 0 265 39" version="1.1" xmlns="http://www.w3.org/2000/svg" xmlns:xlink="http://www.w3.org/1999/xlink">
    <!-- Generator: Sketch 47.1 (45422) - http://www.bohemiancoding.com/sketch -->
    <title>Bun-bottom</title>
    <desc>Created with Sketch.</desc>
    <defs>
        <linearGradient x1="50%" y1="3.97600446%" x2="50%" y2="96.0021898%" id="linearGradient-1">
            <stop stop-color="#D79C00" offset="0%"></stop>
            <stop stop-color="#CBA133" offset="32.6479572%"></stop>
            <stop stop-color="#FFC025" offset="100%"></stop>
        </linearGradient>
    </defs>
    <g id="Page-1" stroke="none" stroke-width="1" fill="none" fill-rule="evenodd">
        <g id="Burger-Builder-UI" transform="translate(-338.000000, -580.000000)" fill="url(#linearGradient-1)">
            <g id="Bun-bottom" transform="translate(338.000000, 580.000000)">
                <path d="M15,0 L250,0 L250,0 C258.284271,-1.52179594e-15 265,6.71572875 265,15 L265,34 L265,34 C265,36.7614237 262.761424,39 260,39 L5,39 L5,39 C2.23857625,39 3.38176876e-16,36.7614237 0,34 L0,15 L0,15 C-1.01453063e-15,6.71572875 6.71572875,1.52179594e-15 15,0 Z" id="Rectangle" transform="translate(132.500000, 19.500000) scale(1, -1) translate(-132.500000, -19.500000) "></path>
            </g>
        </g>
    </g>
</svg>