<?xml version="1.0" encoding="UTF-8"?>
<svg width="297px" height="27px" viewBox="0 0 297 27" version="1.1" xmlns="http://www.w3.org/2000/svg" xmlns:xlink="http://www.w3.org/1999/xlink">
    <!-- Generator: Sketch 47.1 (45422) - http://www.bohemiancoding.com/sketch -->
    <title>Letucce</title>
    <desc>Created with Sketch.</desc>
    <defs></defs>
    <g id="Page-1" stroke="none" stroke-width="1" fill="none" fill-rule="evenodd">
        <g id="Burger-Builder-UI" transform="translate(-339.000000, -375.000000)">
            <g id="Letucce" transform="translate(339.000000, 372.000000)">
                <path d="M7.58346656,8.65291644 C14.5446605,7.55097218 23.0272225,7.00000005 33.0311524,7.00000005 C53.2452946,7.00000005 51.5849794,12.998846 73.4594368,12.998846 C95.3338942,12.998846 91.6013944,7.00000005 117.208352,7.00000005 C142.815309,7.00000005 143.268339,12.998846 168.422266,12.998846 C193.576193,12.998846 200.221483,7.00000005 218.730119,7.00000005 C237.238755,7.00000005 236.179681,11.9990384 255.747391,11.9990384 C266.651367,11.9990384 277.555343,11.5333478 288.459318,10.6019666 L288.459316,10.6019346 C291.776201,10.3186174 294.694742,12.7778103 294.978059,16.0946958 C294.989576,16.2295242 294.996549,16.3647022 294.998966,16.5 L294.998966,16.5 L294.998966,16.5 C295.064777,20.183073 292.260664,23.2849588 288.589649,23.5899309 C277.272748,24.5301126 266.402765,25.0001924 255.979702,25.0001924 C237.36254,25.0001924 243.631146,20.001154 218.745379,20.001154 C193.859611,20.001154 195.040772,26 168.973843,26 C142.906915,26 138.846248,20.001154 116.839986,20.001154 C94.8337244,20.001154 92.8591063,26 72.8274625,26 C52.7958187,26 48.5876051,20.001154 32.7641749,20.001154 C24.3179956,20.001154 15.8718163,20.6420954 7.42563708,21.9239781 L7.42563251,21.9239481 C4.37494221,22.3869535 1.526529,20.2892205 1.06352353,17.2385302 C1.02641179,16.9940052 1.00557788,16.7472858 1.00115927,16.5 L1.00115927,16.5 L1.00115927,16.5 C0.931631722,12.60892 3.73962391,9.26136673 7.58346302,8.65289404 Z" id="Rectangle-3" fill="#417505" transform="translate(147.999999, 16.500000) rotate(-2.000000) translate(-147.999999, -16.500000) "></path>
                <path d="M7.62831394,12.4124747 C14.4655365,9.1114673 22.8407815,7.46096358 32.7540489,7.46096358 C52.9392615,7.46096358 51.2813224,13.5461432 73.1244741,13.5461432 C94.9676258,13.5461432 91.2404678,7.46096358 116.810778,7.46096358 C142.381087,7.46096358 142.833469,13.5461432 167.951397,13.5461432 C193.069324,13.5461432 199.705104,7.46096358 218.187252,7.46096358 C236.669399,7.46096358 238.93333,12.4257618 258.473035,12.4257618 C269.169296,12.4257618 279.058245,10.3991816 288.139883,6.34602143 L288.139886,6.34602929 C290.931345,5.10019345 294.204219,6.35316833 295.450054,9.14462703 C295.56632,9.40513471 295.662271,9.67424116 295.73705,9.94954088 L295.73705,9.94954088 L295.73705,9.94954088 C296.776809,13.7774103 294.749991,17.7709501 291.046524,19.1915173 C279.88407,23.4731907 269.103566,25.6140245 258.705013,25.6140245 C240.114496,25.6140245 243.052642,20.6492264 218.202489,20.6492264 C193.352337,20.6492264 194.531807,26.734406 168.502185,26.734406 C142.472562,26.734406 138.417707,20.6492264 116.442939,20.6492264 C94.4681718,20.6492264 92.4963798,26.734406 72.4934043,26.734406 C52.4904289,26.734406 48.2882379,20.6492264 32.4874535,20.6492264 C23.8695803,20.6492264 15.303462,22.6848262 6.78909855,26.7560259 L6.78909114,26.7560105 C4.77437473,27.7193606 2.36017482,26.8670597 1.39682472,24.8523433 C1.14676266,24.3293724 1.01206838,23.7587485 1.00187353,23.1791575 L1.00187353,23.1791575 L1.00187353,23.1791575 C0.921414347,18.6049425 3.5084237,14.4015501 7.62831178,12.4124703 Z" id="Rectangle-3" fill="#7ED321" transform="translate(148.504351, 16.508320) rotate(2.000000) translate(-148.504351, -16.508320) "></path>
            </g>
        </g>
    </g>
</svg>